<svg xmlns="http://www.w3.org/2000/svg" xmlns:xlink="http://www.w3.org/1999/xlink" width="6912" zoomAndPan="magnify" viewBox="0 0 5184 2592.000001" height="3456" preserveAspectRatio="xMidYMid meet" version="1.0"><defs><g/><clipPath id="392c61645c"><path d="M 1 0 L 5183 0 L 5183 2591 L 1 2591 Z M 1 0 " clip-rule="nonzero"/></clipPath></defs><g clip-path="url(#392c61645c)"><path fill="#ffffff" d="M 1 0 L 5183 0 L 5183 2598.496094 L 1 2598.496094 Z M 1 0 " fill-opacity="1" fill-rule="nonzero"/></g><path fill="#ffffff" d="M 1 0 L 5183 0 L 5183 2591 L 1 2591 Z M 1 0 " fill-opacity="1" fill-rule="nonzero"/><path fill="#ede8d1" d="M 1 0 L 5183 0 L 5183 2591 L 1 2591 Z M 1 0 " fill-opacity="1" fill-rule="nonzero"/><path stroke-linecap="round" transform="matrix(1.179746, 0.00377284, -0.00377284, 1.179746, 2592.014406, 677.017941)" fill="none" stroke-linejoin="round" d="M 0.000338094 -444.38732 C 245.256449 -444.386921 444.386778 -245.258765 444.386391 0.000656254 C 444.385992 245.256767 245.257836 444.387096 -0.00158534 444.386709 C -245.257696 444.38631 -444.388025 245.258154 -444.387638 -0.00126718 C -444.387239 -245.257378 -245.255772 -444.387718 0.000338094 -444.38732 Z M 0.000338094 -444.38732 " stroke="#242125" stroke-width="10" stroke-opacity="1" stroke-miterlimit="4"/><path stroke-linecap="round" transform="matrix(1.179746, 0.00377284, -0.00377284, 1.179746, 2380.374115, 887.308873)" fill="none" stroke-linejoin="round" d="M 178.82211 178.823009 C -18.697947 178.822261 -178.821348 18.69988 -178.823922 -178.823477 " stroke="#242125" stroke-width="10" stroke-opacity="1" stroke-miterlimit="4"/><path stroke-linecap="round" transform="matrix(1.179746, 0.00377284, -0.00377284, 1.179746, 2803.654722, 466.726888)" fill="none" stroke-linejoin="round" d="M -178.823377 -178.823518 C 18.69999 -178.822781 178.823392 -18.700399 178.822654 178.822968 " stroke="#242125" stroke-width="10" stroke-opacity="1" stroke-miterlimit="4"/><path stroke-linecap="round" transform="matrix(1.179746, 0.00377284, -0.00377284, 1.179746, 2411.229641, 856.650143)" fill="none" stroke-linejoin="round" d="M 152.753209 152.750831 C -15.973564 152.750712 -152.751934 15.973047 -152.751805 -152.750415 " stroke="#242125" stroke-width="10" stroke-opacity="1" stroke-miterlimit="4"/><path stroke-linecap="round" transform="matrix(1.179746, 0.00377284, -0.00377284, 1.179746, 2772.799196, 497.385715)" fill="none" stroke-linejoin="round" d="M -152.751166 -152.751432 C 15.972297 -152.751302 152.750667 -15.973638 152.750548 152.753136 " stroke="#242125" stroke-width="10" stroke-opacity="1" stroke-miterlimit="4"/><path stroke-linecap="round" transform="matrix(1.179746, 0.00377284, -0.00377284, 1.179746, 2441.644698, 826.42874)" fill="none" stroke-linejoin="round" d="M 127.05224 127.051776 C -13.2852 127.053578 -127.054025 13.287282 -127.052527 -127.053479 " stroke="#242125" stroke-width="10" stroke-opacity="1" stroke-miterlimit="4"/><path stroke-linecap="round" transform="matrix(1.179746, 0.00377284, -0.00377284, 1.179746, 2742.383899, 527.607022)" fill="none" stroke-linejoin="round" d="M -127.053304 -127.052286 C 13.287447 -127.054099 127.052972 -13.284481 127.051464 127.052969 " stroke="#242125" stroke-width="10" stroke-opacity="1" stroke-miterlimit="4"/><path stroke-linecap="round" transform="matrix(1.179746, 0.00377284, -0.00377284, 1.179746, 2592.014406, 677.017941)" fill="none" stroke-linejoin="round" d="M 0.000596492 -137.839534 C 76.073007 -137.837793 137.837034 -76.071485 137.838605 0.000914652 C 137.836864 76.073325 76.073867 137.837342 0.00146732 137.838912 C -76.074254 137.837182 -137.838271 76.074185 -137.839852 -0.00152558 C -137.838111 -76.073936 -76.071803 -137.837964 0.000596492 -137.839534 Z M 0.000596492 -137.839534 " stroke="#477d14" stroke-width="10" stroke-opacity="1" stroke-miterlimit="4"/><path stroke-linecap="round" transform="matrix(1.179746, 0.00377284, -0.00377284, 1.179746, 2592.014406, 677.017941)" fill="none" stroke-linejoin="round" d="M -0.000271951 -26.292056 C 14.508946 -26.292101 26.291081 -14.509171 26.291126 0.00004621 C 26.291172 14.509264 14.508242 26.291399 -0.000975299 26.291445 C -14.510193 26.29149 -26.289017 14.50855 -26.289063 -0.000667727 C -26.289108 -14.509885 -14.50949 -26.29201 -0.000271951 -26.292056 Z M -0.000271951 -26.292056 " stroke="#242125" stroke-width="10" stroke-opacity="1" stroke-miterlimit="4"/><g fill="#ede8d1" fill-opacity="1"><g transform="translate(57.640983, 232.89488)"><g><path d="M 13.816406 0.214844 C 14.714844 0.214844 16.082031 0.214844 17.792969 0 C 19.121094 -0.171875 20.105469 -0.257812 20.445312 -1.539062 C 21.046875 -3.890625 21.902344 -7.355469 22.585938 -10.351562 C 23.570312 -14.5 24.382812 -17.707031 25.792969 -17.707031 C 27.246094 -17.707031 28.058594 -14.5 29.085938 -10.351562 L 31.140625 -1.496094 C 31.484375 -0.257812 32.507812 -0.128906 33.835938 0 C 35.546875 0.171875 37 0.214844 37.941406 0.214844 C 38.753906 0.214844 40.292969 0.171875 41.40625 0.0429688 C 42.261719 -0.0429688 42.773438 -0.554688 43.117188 -1.285156 C 45.8125 -7.570312 49.320312 -18.949219 50.945312 -28.53125 C 51.117188 -29.300781 50.773438 -29.855469 50.089844 -29.941406 C 48.761719 -30.113281 47.136719 -30.15625 46.410156 -30.15625 C 45.683594 -30.15625 44.144531 -30.113281 43.074219 -29.941406 C 42.304688 -29.8125 41.792969 -29.386719 41.707031 -28.574219 C 41.40625 -24.894531 40.039062 -18.5625 39.140625 -15.527344 C 38.453125 -12.617188 37.769531 -10.652344 36.785156 -10.652344 C 35.675781 -10.652344 35.03125 -12.789062 34.089844 -15.613281 C 33.152344 -18.136719 31.738281 -21.945312 30.628906 -24.636719 C 29.472656 -27.460938 28.316406 -28.746094 25.792969 -28.746094 C 23.3125 -28.746094 22.113281 -27.460938 20.960938 -24.636719 C 19.890625 -21.945312 18.4375 -18.136719 17.539062 -15.613281 C 16.554688 -12.832031 15.957031 -10.652344 14.84375 -10.652344 C 13.859375 -10.652344 13.175781 -12.746094 12.492188 -15.570312 C 11.59375 -18.605469 10.222656 -24.980469 9.882812 -28.617188 C 9.839844 -29.429688 9.324219 -29.898438 8.597656 -29.984375 C 7.484375 -30.113281 5.988281 -30.15625 5.261719 -30.15625 C 4.449219 -30.15625 2.867188 -30.113281 1.582031 -29.941406 C 0.855469 -29.855469 0.554688 -29.300781 0.726562 -28.53125 C 2.394531 -18.949219 5.773438 -7.785156 8.597656 -1.324219 C 8.898438 -0.597656 9.496094 -0.0859375 10.222656 0 C 11.335938 0.128906 13.046875 0.214844 13.816406 0.214844 Z M 13.816406 0.214844 "/></g></g></g><g fill="#ede8d1" fill-opacity="1"><g transform="translate(109.296548, 232.89488)"><g><path d="M 11.035156 0.386719 C 15.398438 0.386719 19.589844 -1.796875 21.386719 -4.492188 C 21.902344 -5.261719 22.714844 -5.003906 22.542969 -4.019531 C 22.457031 -3.378906 22.285156 -2.265625 22.199219 -1.796875 C 21.988281 -0.898438 22.671875 -0.171875 23.527344 -0.0429688 C 24.511719 0.171875 26.265625 0.214844 27.164062 0.214844 C 28.316406 0.214844 29.601562 0.128906 30.414062 -0.0429688 C 31.269531 -0.171875 31.867188 -0.769531 31.824219 -1.667969 C 31.695312 -5.132812 31.269531 -10.863281 30.96875 -13.773438 C 30.242188 -20.703125 25.023438 -23.65625 16.082031 -23.65625 C 12.234375 -23.65625 8.210938 -23.140625 4.875 -22.242188 C 4.234375 -22.070312 3.933594 -21.472656 3.851562 -20.789062 C 3.722656 -19.933594 3.292969 -17.066406 3.207031 -16.167969 C 3.121094 -14.972656 4.320312 -14.328125 5.132812 -15.015625 C 8.253906 -17.195312 12.574219 -18.136719 16.382812 -18.136719 C 20.703125 -18.136719 22.199219 -17.109375 22.199219 -16.253906 C 22.199219 -14.671875 20.148438 -14.414062 13.003906 -13.859375 C 5.433594 -13.21875 0.898438 -10.863281 0.898438 -6.375 C 0.898438 -1.839844 4.746094 0.386719 11.035156 0.386719 Z M 14.886719 -5.261719 C 11.078125 -5.261719 9.625 -5.988281 9.625 -7.527344 C 9.625 -9.710938 13.558594 -11.378906 18.136719 -11.378906 C 21.046875 -11.378906 22.070312 -10.609375 22.070312 -9.453125 C 22.070312 -7.144531 18.136719 -5.261719 14.886719 -5.261719 Z M 14.886719 -5.261719 "/></g></g></g><g fill="#ede8d1" fill-opacity="1"><g transform="translate(142.393735, 232.89488)"><g><path d="M 16.851562 10.265625 C 25.707031 10.265625 34.820312 6.542969 34.820312 -1.882812 C 34.820312 -9.453125 34.605469 -14.074219 33.878906 -21.816406 C 33.792969 -22.585938 33.277344 -23.183594 32.550781 -23.269531 C 31.609375 -23.398438 30.371094 -23.484375 29.257812 -23.484375 C 28.273438 -23.484375 26.648438 -23.398438 25.75 -23.269531 C 25.109375 -23.183594 24.511719 -22.628906 24.679688 -21.859375 C 25.410156 -18.691406 25.75 -15.785156 25.75 -13.429688 C 25.75 -8.941406 22.84375 -5.519531 18.394531 -5.519531 C 12.574219 -5.519531 10.136719 -8.554688 10.136719 -12.917969 C 10.136719 -15.226562 10.78125 -19.078125 11.292969 -21.902344 C 11.464844 -22.671875 10.863281 -23.140625 10.179688 -23.269531 C 9.027344 -23.484375 7.230469 -23.484375 6.5 -23.484375 C 5.902344 -23.484375 4.664062 -23.441406 3.722656 -23.269531 C 2.996094 -23.140625 2.394531 -22.628906 2.308594 -21.816406 C 1.796875 -16.511719 1.667969 -13.261719 1.667969 -10.652344 C 1.667969 -4.40625 6.074219 0.429688 14.972656 0.429688 C 19.378906 0.429688 23.140625 -0.34375 25.492188 -3.851562 C 25.964844 -4.621094 26.777344 -4.535156 26.777344 -3.507812 L 26.777344 -3.207031 C 26.777344 0.300781 20.875 3.765625 14.5 3.765625 C 10.566406 3.765625 6.03125 2.695312 2.953125 1.027344 C 2.140625 0.46875 1.113281 1.070312 1.027344 2.054688 C 0.855469 3.765625 0.769531 5.519531 0.597656 7.230469 C 0.511719 8 0.984375 8.640625 1.710938 8.855469 C 5.605469 9.964844 12.320312 10.265625 16.851562 10.265625 Z M 16.851562 10.265625 "/></g></g></g><g fill="#ede8d1" fill-opacity="1"><g transform="translate(178.398693, 232.89488)"><g><path d="M 21.171875 0.386719 C 30.585938 0.386719 39.351562 -2.011719 39.351562 -8 C 39.351562 -11.847656 35.375 -14.800781 27.078125 -15.742188 C 26.136719 -15.871094 26.136719 -16.8125 27.203125 -16.980469 C 33.40625 -17.835938 36.914062 -20.617188 36.914062 -23.78125 C 36.914062 -28.359375 30.96875 -30.414062 18.734375 -30.414062 C 14.800781 -30.414062 8.253906 -30.199219 3.765625 -29.941406 C 3.078125 -29.898438 2.523438 -29.34375 2.480469 -28.617188 C 2.140625 -22.15625 1.410156 -10.78125 1.410156 -1.367188 C 1.410156 -0.640625 2.011719 -0.0429688 2.695312 0 C 4.875 0.128906 15.699219 0.386719 21.171875 0.386719 Z M 13.21875 -18.820312 C 11.464844 -18.777344 10.566406 -19.460938 10.4375 -20.703125 C 10.351562 -21.300781 10.351562 -22.199219 10.4375 -22.800781 C 10.566406 -23.996094 11.421875 -24.511719 12.960938 -24.636719 C 14.714844 -24.765625 18.007812 -24.808594 20.234375 -24.808594 C 25.878906 -24.808594 28.445312 -23.78125 28.445312 -22.328125 C 28.445312 -20.0625 23.910156 -19.035156 13.21875 -18.820312 Z M 13.644531 -5.6875 C 11.804688 -5.773438 10.480469 -6.5 10.4375 -8.253906 C 10.351562 -9.195312 10.351562 -10.179688 10.4375 -11.164062 C 10.480469 -12.660156 11.378906 -13.730469 13.347656 -13.644531 C 24.339844 -13.429688 30.5 -12.449219 30.5 -9.367188 C 30.5 -7.1875 26.863281 -5.476562 21.257812 -5.476562 C 19.25 -5.476562 15.527344 -5.5625 13.644531 -5.6875 Z M 13.644531 -5.6875 "/></g></g></g><g fill="#ede8d1" fill-opacity="1"><g transform="translate(218.637012, 232.89488)"><g><path d="M 11.035156 0.386719 C 15.398438 0.386719 19.589844 -1.796875 21.386719 -4.492188 C 21.902344 -5.261719 22.714844 -5.003906 22.542969 -4.019531 C 22.457031 -3.378906 22.285156 -2.265625 22.199219 -1.796875 C 21.988281 -0.898438 22.671875 -0.171875 23.527344 -0.0429688 C 24.511719 0.171875 26.265625 0.214844 27.164062 0.214844 C 28.316406 0.214844 29.601562 0.128906 30.414062 -0.0429688 C 31.269531 -0.171875 31.867188 -0.769531 31.824219 -1.667969 C 31.695312 -5.132812 31.269531 -10.863281 30.96875 -13.773438 C 30.242188 -20.703125 25.023438 -23.65625 16.082031 -23.65625 C 12.234375 -23.65625 8.210938 -23.140625 4.875 -22.242188 C 4.234375 -22.070312 3.933594 -21.472656 3.851562 -20.789062 C 3.722656 -19.933594 3.292969 -17.066406 3.207031 -16.167969 C 3.121094 -14.972656 4.320312 -14.328125 5.132812 -15.015625 C 8.253906 -17.195312 12.574219 -18.136719 16.382812 -18.136719 C 20.703125 -18.136719 22.199219 -17.109375 22.199219 -16.253906 C 22.199219 -14.671875 20.148438 -14.414062 13.003906 -13.859375 C 5.433594 -13.21875 0.898438 -10.863281 0.898438 -6.375 C 0.898438 -1.839844 4.746094 0.386719 11.035156 0.386719 Z M 14.886719 -5.261719 C 11.078125 -5.261719 9.625 -5.988281 9.625 -7.527344 C 9.625 -9.710938 13.558594 -11.378906 18.136719 -11.378906 C 21.046875 -11.378906 22.070312 -10.609375 22.070312 -9.453125 C 22.070312 -7.144531 18.136719 -5.261719 14.886719 -5.261719 Z M 14.886719 -5.261719 "/></g></g></g><g fill="#ede8d1" fill-opacity="1"><g transform="translate(251.734199, 232.89488)"><g><path d="M 17.496094 0.386719 C 21.046875 0.386719 26.222656 -0.171875 29.214844 -0.984375 C 29.8125 -1.15625 30.328125 -1.839844 30.242188 -2.652344 C 30.070312 -4.363281 29.941406 -5.945312 29.773438 -7.484375 C 29.644531 -8.769531 28.53125 -9.367188 27.632812 -8.511719 C 25.410156 -6.671875 21.859375 -5.644531 18.992188 -5.644531 C 13.347656 -5.644531 9.625 -7.742188 9.625 -11.59375 C 9.625 -15.527344 12.960938 -17.667969 18.523438 -17.667969 C 21.046875 -17.667969 24.808594 -16.8125 26.820312 -15.441406 C 27.890625 -14.585938 28.789062 -15.015625 29 -16.511719 C 29.171875 -17.792969 29.257812 -19.292969 29.429688 -20.574219 C 29.472656 -21.257812 28.875 -21.945312 28.1875 -22.199219 C 25.835938 -23.054688 21.132812 -23.65625 17.496094 -23.65625 C 7.699219 -23.65625 0.898438 -19.078125 0.898438 -11.59375 C 0.898438 -4.148438 7.65625 0.386719 17.496094 0.386719 Z M 17.496094 0.386719 "/></g></g></g><g fill="#ede8d1" fill-opacity="1"><g transform="translate(283.035426, 232.89488)"><g><path d="M 6.160156 0.214844 C 7.015625 0.214844 8.296875 0.171875 9.195312 0.0429688 C 9.882812 -0.0429688 10.523438 -0.640625 10.394531 -1.410156 C 9.925781 -3.765625 9.753906 -5.816406 9.882812 -8.042969 C 9.964844 -9.109375 10.992188 -9.753906 12.191406 -9.753906 C 17.878906 -9.753906 24.851562 -6.375 25.492188 -1.070312 C 25.578125 -0.554688 26.050781 -0.0859375 26.734375 0 C 27.976562 0.171875 29.984375 0.214844 30.882812 0.214844 C 31.566406 0.214844 32.808594 0.171875 33.964844 0 C 34.691406 -0.0859375 35.203125 -0.46875 35.160156 -1.070312 C 34.433594 -7.058594 31.140625 -10.992188 20.445312 -11.890625 C 19.503906 -11.976562 19.503906 -12.617188 20.445312 -12.746094 C 30.457031 -13.773438 33.066406 -17.496094 33.109375 -22.15625 C 33.109375 -22.757812 32.59375 -23.140625 31.910156 -23.269531 C 30.753906 -23.484375 29.730469 -23.484375 28.957031 -23.484375 C 28.144531 -23.484375 26.5625 -23.441406 25.492188 -23.269531 C 24.851562 -23.183594 24.46875 -22.714844 24.382812 -22.242188 C 23.78125 -18.050781 18.4375 -14.757812 12.574219 -14.757812 C 11.164062 -14.757812 9.925781 -15.699219 9.925781 -17.28125 C 9.925781 -21.171875 10.652344 -26.136719 11.25 -29.300781 C 11.421875 -30.027344 10.78125 -30.667969 10.136719 -30.796875 C 9.367188 -30.96875 7.570312 -31.011719 6.460938 -31.011719 C 5.519531 -31.011719 4.320312 -30.96875 3.550781 -30.796875 C 2.910156 -30.667969 2.4375 -30.199219 2.351562 -29.515625 C 1.667969 -23.054688 1.453125 -10.820312 1.410156 -1.410156 C 1.410156 -0.640625 1.925781 -0.0859375 2.609375 0 C 3.59375 0.128906 5.261719 0.214844 6.160156 0.214844 Z M 6.160156 0.214844 "/></g></g></g><g fill="#da6220" fill-opacity="1"><g transform="translate(305.900942, 1854.612575)"><g><path d="M 236.382812 10.046875 C 251.757812 10.460938 275.1875 11.09375 304.570312 8.222656 C 327.347656 5.910156 344.226562 4.898438 350.675781 -16.90625 C 362.011719 -56.898438 378.257812 -115.804688 391.355469 -166.738281 C 410.109375 -237.304688 425.503906 -291.835938 449.664062 -291.183594 C 474.558594 -290.511719 486.984375 -235.226562 502.640625 -163.734375 L 533.691406 -11.234375 C 538.972656 10.15625 556.484375 12.828125 579.125 15.636719 C 608.328125 19.355469 633.203125 20.761719 649.308594 21.195312 C 663.21875 21.570312 689.597656 21.550781 708.691406 19.867188 C 723.375 18.800781 732.398438 10.25 738.589844 -2.035156 C 787.621094 -108.417969 852.914062 -301.542969 885.164062 -464.792969 C 888.449219 -477.890625 882.851562 -487.566406 871.175781 -489.347656 C 848.558594 -492.890625 820.757812 -494.375 808.308594 -494.710938 C 795.863281 -495.046875 769.488281 -495.023438 751.105469 -492.589844 C 737.867188 -490.75 728.882812 -483.667969 727.042969 -469.796875 C 720.21875 -406.96875 693.863281 -299.246094 677.085938 -247.679688 C 664.027344 -198.207031 651.402344 -164.847656 634.5625 -165.300781 C 615.527344 -165.816406 605.535156 -202.71875 590.730469 -251.476562 C 575.792969 -295.105469 553.390625 -360.917969 535.601562 -407.558594 C 517.136719 -456.414062 497.960938 -478.910156 454.765625 -480.078125 C 412.300781 -481.222656 391.207031 -459.8125 370.136719 -412.027344 C 350.585938 -366.394531 323.933594 -301.90625 307.394531 -259.125 C 289.269531 -211.992188 278.011719 -174.929688 258.976562 -175.441406 C 242.136719 -175.898438 231.390625 -212.089844 220.980469 -260.726562 C 207.007812 -313.125 186.527344 -422.84375 182.351562 -485.234375 C 181.992188 -499.164062 173.425781 -507.457031 161.019531 -509.257812 C 142.042969 -511.96875 116.4375 -513.390625 103.992188 -513.726562 C 90.078125 -514.101562 62.972656 -514.101562 40.925781 -511.765625 C 28.441406 -510.640625 23.058594 -501.257812 25.632812 -488 C 49.757812 -323.230469 102.4375 -130.582031 147.773438 -18.722656 C 152.5625 -6.136719 162.574219 2.925781 174.980469 4.726562 C 193.957031 7.433594 223.203125 9.691406 236.382812 10.046875 Z M 236.382812 10.046875 "/></g></g></g><g fill="#da6220" fill-opacity="1"><g transform="translate(1206.435561, 1877.978209)"><g><path d="M 188.832031 9.640625 C 263.527344 10.84375 335.894531 -25.34375 367.398438 -70.984375 C 376.398438 -84.023438 390.242188 -79.40625 387.039062 -62.609375 C 385.398438 -51.648438 382.160156 -32.65625 380.566406 -24.625 C 376.65625 -9.304688 388.171875 3.335938 402.785156 5.769531 C 419.566406 9.699219 449.582031 10.917969 464.960938 11.167969 C 484.730469 11.484375 506.722656 10.375 520.6875 7.671875 C 535.367188 5.710938 545.785156 -4.378906 545.300781 -19.765625 C 544.0625 -79.121094 538.320312 -177.367188 534 -227.25 C 523.464844 -346.082031 434.9375 -398.054688 281.886719 -400.523438 C 215.976562 -401.589844 146.996094 -393.910156 89.628906 -379.453125 C 78.597656 -376.703125 73.304688 -366.535156 71.652344 -354.839844 C 69.21875 -340.230469 61.105469 -291.28125 59.390625 -275.925781 C 57.59375 -255.445312 77.921875 -244.132812 92.027344 -255.625 C 146.085938 -292.109375 220.3125 -307.027344 285.488281 -305.972656 C 359.449219 -304.78125 384.796875 -286.792969 384.5625 -272.144531 C 384.125 -245.050781 348.902344 -241.222656 226.453125 -233.675781 C 96.65625 -224.785156 18.378906 -185.757812 17.140625 -108.867188 C 15.886719 -31.242188 81.179688 7.902344 188.832031 9.640625 Z M 256.296875 -85.960938 C 191.121094 -87.011719 166.425781 -99.863281 166.851562 -126.226562 C 167.453125 -163.574219 235.285156 -191.046875 313.644531 -189.785156 C 363.441406 -188.980469 380.804688 -175.515625 380.484375 -155.742188 C 379.847656 -116.199219 311.953125 -85.0625 256.296875 -85.960938 Z M 256.296875 -85.960938 "/></g></g></g><g fill="#da6220" fill-opacity="1"><g transform="translate(1788.807136, 1887.418185)"><g><path d="M 287.285156 177.863281 C 438.890625 178.964844 595.351562 116.375 596.398438 -27.902344 C 597.335938 -157.535156 594.25 -236.660156 582.757812 -369.3125 C 581.390625 -382.507812 572.675781 -392.824219 560.234375 -394.378906 C 544.136719 -396.695312 522.910156 -398.3125 503.867188 -398.449219 C 487.023438 -398.570312 459.179688 -397.308594 443.785156 -395.222656 C 432.789062 -393.839844 422.464844 -384.390625 425.300781 -371.1875 C 437.359375 -316.902344 442.855469 -267.054688 442.566406 -226.773438 C 442.007812 -149.875 391.78125 -91.644531 315.613281 -92.195312 C 216.007812 -92.917969 174.636719 -145.21875 175.179688 -219.921875 C 175.464844 -259.472656 186.929688 -325.308594 196.066406 -373.582031 C 199.09375 -386.742188 188.898438 -394.875 177.195312 -397.15625 C 157.449219 -400.960938 126.6875 -401.183594 114.238281 -401.273438 C 103.984375 -401.347656 82.738281 -400.769531 66.605469 -397.957031 C 54.140625 -395.851562 43.820312 -387.136719 42.257812 -373.230469 C 32.808594 -282.480469 30.207031 -226.832031 29.886719 -182.15625 C 29.109375 -75.230469 103.945312 8.078125 256.28125 9.183594 C 331.71875 9.730469 396.265625 -2.988281 436.980469 -62.75 C 445.132812 -75.875 459.039062 -74.308594 458.910156 -56.734375 L 458.875 -51.605469 C 458.4375 8.449219 356.9375 67.039062 247.8125 66.25 C 180.433594 65.761719 102.933594 46.890625 50.40625 17.945312 C 36.5625 8.320312 18.910156 18.449219 17.324219 35.28125 C 14.179688 64.554688 12.5 94.574219 9.355469 123.847656 C 7.796875 137.019531 15.773438 148.066406 28.195312 151.816406 C 94.707031 171.34375 209.652344 177.300781 287.285156 177.863281 Z M 287.285156 177.863281 "/></g></g></g><g fill="#da6220" fill-opacity="1"><g transform="translate(2421.283693, 1892.102541)"><g><path d="M 362.558594 5.671875 C 523.6875 5.261719 673.726562 -36.132812 673.464844 -138.671875 C 673.296875 -204.585938 605.054688 -254.949219 462.929688 -270.703125 C 446.808594 -272.859375 446.769531 -288.972656 465.070312 -291.949219 C 571.234375 -306.867188 631.167969 -354.625 631.03125 -408.824219 C 630.832031 -487.191406 528.9375 -522.085938 319.472656 -521.554688 C 252.089844 -521.382812 140.039062 -517.4375 63.148438 -512.847656 C 51.433594 -512.085938 41.9375 -502.539062 41.234375 -490.085938 C 35.65625 -379.480469 23.699219 -184.628906 24.109375 -23.5 C 24.140625 -11.046875 34.421875 -0.820312 46.140625 -0.117188 C 83.5 1.984375 268.808594 5.910156 362.558594 5.671875 Z M 225.496094 -322.832031 C 195.46875 -322.023438 180.058594 -333.703125 177.804688 -354.9375 C 176.316406 -365.1875 176.277344 -380.570312 177.714844 -390.824219 C 179.859375 -411.339844 194.484375 -420.164062 220.847656 -422.429688 C 250.871094 -424.703125 307.265625 -425.578125 345.347656 -425.675781 C 442.027344 -425.921875 486.015625 -408.453125 486.078125 -383.550781 C 486.175781 -344.734375 408.585938 -326.960938 225.496094 -322.832031 Z M 233.390625 -98.003906 C 201.894531 -99.386719 179.15625 -111.78125 178.347656 -141.808594 C 176.84375 -157.917969 176.800781 -174.761719 178.222656 -191.613281 C 178.886719 -217.246094 194.222656 -235.597656 227.917969 -234.21875 C 416.15625 -231.035156 521.664062 -214.457031 521.796875 -161.722656 C 521.890625 -124.371094 459.710938 -94.914062 363.765625 -94.671875 C 329.34375 -94.585938 265.621094 -95.886719 233.390625 -98.003906 Z M 233.390625 -98.003906 "/></g></g></g><g fill="#da6220" fill-opacity="1"><g transform="translate(3126.181687, 1889.950229)"><g><path d="M 189.027344 4.332031 C 263.726562 3.4375 335.050781 -34.769531 365.257812 -81.277344 C 373.886719 -94.566406 387.855469 -90.335938 385.128906 -73.457031 C 383.792969 -62.457031 381.09375 -43.378906 379.722656 -35.304688 C 376.246094 -19.882812 388.113281 -7.574219 402.785156 -5.550781 C 419.675781 -2.089844 449.710938 -1.71875 465.089844 -1.902344 C 484.863281 -2.136719 506.816406 -3.863281 520.695312 -6.960938 C 535.316406 -9.332031 545.445312 -19.707031 544.53125 -35.078125 C 541.625 -94.375 533.125 -192.421875 527.402344 -242.160156 C 513.535156 -360.652344 423.582031 -410.117188 270.519531 -408.285156 C 204.609375 -407.496094 135.871094 -397.886719 78.933594 -381.824219 C 67.984375 -378.761719 62.980469 -368.449219 61.65625 -356.714844 C 59.632812 -342.039062 52.894531 -292.882812 51.613281 -277.488281 C 50.394531 -256.964844 71.03125 -246.222656 84.808594 -258.109375 C 137.824219 -296.097656 211.597656 -313.09375 276.777344 -313.875 C 350.746094 -314.757812 376.589844 -297.488281 376.761719 -282.839844 C 377.085938 -255.746094 341.988281 -250.929688 219.796875 -239.945312 C 90.300781 -227.410156 13.15625 -186.203125 14.074219 -109.304688 C 15.003906 -31.675781 81.371094 5.617188 189.027344 4.332031 Z M 253.78125 -93.128906 C 188.601562 -92.347656 163.554688 -104.5 163.238281 -130.867188 C 162.792969 -168.214844 229.828125 -197.582031 308.1875 -198.519531 C 357.988281 -199.117188 375.722656 -186.144531 375.960938 -166.371094 C 376.433594 -126.824219 309.441406 -93.792969 253.78125 -93.128906 Z M 253.78125 -93.128906 "/></g></g></g><g fill="#da6220" fill-opacity="1"><g transform="translate(3708.426525, 1882.857656)"><g><path d="M 299.625 0.523438 C 360.402344 -0.710938 448.8125 -12.023438 499.789062 -26.976562 C 509.984375 -30.113281 518.53125 -42.007812 516.785156 -55.890625 C 513.261719 -85.121094 510.519531 -112.167969 507.054688 -138.472656 C 504.414062 -160.394531 485.167969 -170.261719 470.085938 -155.304688 C 432.644531 -123.046875 372.226562 -104.238281 323.164062 -103.246094 C 226.503906 -101.285156 162.074219 -135.875 160.738281 -201.78125 C 159.371094 -269.148438 215.746094 -306.917969 310.941406 -308.847656 C 354.144531 -309.722656 418.878906 -296.382812 453.769531 -273.648438 C 472.371094 -259.375 487.601562 -267.007812 490.742188 -292.710938 C 493.226562 -314.738281 494.171875 -340.394531 496.65625 -362.421875 C 497.152344 -374.152344 486.664062 -385.664062 474.855469 -389.820312 C 434.285156 -403.648438 353.53125 -412.265625 291.289062 -411.007812 C 123.601562 -407.609375 8.761719 -326.898438 11.355469 -198.753906 C 13.9375 -71.339844 131.207031 3.933594 299.625 0.523438 Z M 299.625 0.523438 "/></g></g></g><g fill="#da6220" fill-opacity="1"><g transform="translate(4259.948164, 1871.797144)"><g><path d="M 105.527344 0.609375 C 120.171875 0.183594 142.113281 -1.183594 157.421875 -3.824219 C 169.09375 -5.628906 179.777344 -16.195312 177.199219 -29.308594 C 167.980469 -69.34375 164.035156 -104.398438 165.128906 -142.53125 C 166.066406 -160.875 183.316406 -172.367188 203.816406 -172.960938 C 301.1875 -175.777344 422.191406 -121.398438 435.800781 -30.933594 C 437.519531 -22.191406 445.808594 -14.371094 457.5625 -13.246094 C 478.878906 -10.933594 513.308594 -11.199219 528.683594 -11.640625 C 540.394531 -11.980469 561.605469 -13.328125 581.289062 -16.828125 C 593.691406 -18.652344 602.285156 -25.496094 601.257812 -35.726562 C 585.84375 -137.859375 527.523438 -203.578125 344.050781 -213.65625 C 327.902344 -214.652344 327.585938 -225.632812 343.628906 -228.296875 C 514.429688 -250.828125 557.246094 -315.8125 555.667969 -395.632812 C 555.371094 -405.882812 546.394531 -412.21875 534.617188 -414.074219 C 514.746094 -417.164062 497.171875 -416.652344 483.996094 -416.273438 C 470.085938 -415.871094 443.019531 -414.351562 424.800781 -410.894531 C 413.863281 -409.113281 407.507812 -400.867188 406.277344 -392.773438 C 398.105469 -320.730469 308.222656 -261.710938 207.925781 -258.804688 C 183.765625 -258.105469 162.070312 -273.597656 161.285156 -300.6875 C 159.355469 -367.308594 169.34375 -452.589844 178.023438 -507.0625 C 180.59375 -519.59375 169.292969 -530.257812 158.246094 -532.136719 C 144.984375 -534.683594 114.214844 -534.523438 95.179688 -533.972656 C 79.074219 -533.507812 58.597656 -532.179688 45.503906 -528.871094 C 34.585938 -526.359375 26.765625 -518.070312 25.640625 -506.316406 C 17.128906 -395.429688 19.527344 -185.941406 23.460938 -24.859375 C 23.839844 -11.679688 32.902344 -2.417969 44.65625 -1.292969 C 61.558594 0.414062 90.15625 1.054688 105.527344 0.609375 Z M 105.527344 0.609375 "/></g></g></g><g fill="#242125" fill-opacity="1"><g transform="translate(1678.621405, 2359.800504)"><g><path d="M 60.4375 68.171875 C 54.582031 67.941406 49.429688 64.894531 44.984375 59.03125 C 40.535156 53.175781 36.671875 45.5625 33.390625 36.1875 C 30.109375 26.820312 27.351562 16.164062 25.125 4.21875 C 22.894531 -7.726562 21.078125 -19.851562 19.671875 -32.15625 C 18.273438 -44.457031 17.34375 -56.40625 16.875 -68 C 16.40625 -79.59375 16.171875 -89.84375 16.171875 -98.75 C 16.398438 -112.8125 17.507812 -127.28125 19.5 -142.15625 C 21.488281 -157.03125 23.710938 -171.023438 26.171875 -184.140625 C 28.640625 -197.265625 31.101562 -208.921875 33.5625 -219.109375 C 36.019531 -229.304688 37.835938 -236.507812 39.015625 -240.71875 C 40.648438 -247.519531 42.875 -252.148438 45.6875 -254.609375 C 48.5 -257.066406 53.769531 -258.53125 61.5 -259 L 69.9375 -259 C 72.28125 -258.769531 74.617188 -258.535156 76.953125 -258.296875 C 79.296875 -258.066406 81.40625 -257.484375 83.28125 -256.546875 C 74.851562 -239.671875 68.0625 -222.566406 62.90625 -205.234375 C 57.75 -187.898438 53.765625 -170.5625 50.953125 -153.21875 C 48.140625 -135.882812 46.378906 -118.84375 45.671875 -102.09375 C 44.972656 -85.34375 44.859375 -69.117188 45.328125 -53.421875 C 45.796875 -41.003906 46.5 -29.460938 47.4375 -18.796875 C 48.375 -8.140625 49.898438 2.691406 52.015625 13.703125 C 54.117188 24.484375 56.578125 30.691406 59.390625 32.328125 C 62.203125 33.972656 65.128906 32.859375 68.171875 28.984375 C 71.222656 25.117188 74.210938 19.492188 77.140625 12.109375 C 80.066406 4.734375 82.582031 -2.695312 84.6875 -10.1875 C 86.09375 -15.113281 88.203125 -22.203125 91.015625 -31.453125 C 93.828125 -40.703125 96.988281 -50.953125 100.5 -62.203125 C 104.019531 -73.453125 107.710938 -85.164062 111.578125 -97.34375 C 115.441406 -109.53125 119.015625 -120.832031 122.296875 -131.25 C 125.578125 -141.675781 128.445312 -150.753906 130.90625 -158.484375 C 133.363281 -166.222656 135.0625 -171.378906 136 -173.953125 C 137.40625 -177.703125 139.335938 -182.914062 141.796875 -189.59375 C 144.253906 -196.269531 146.945312 -203.296875 149.875 -210.671875 C 152.8125 -218.054688 155.859375 -225.4375 159.015625 -232.8125 C 162.179688 -240.195312 165.171875 -246.703125 167.984375 -252.328125 C 170.796875 -257.710938 173.957031 -260.875 177.46875 -261.8125 C 180.976562 -262.75 184.429688 -262.222656 187.828125 -260.234375 C 191.234375 -258.242188 194.398438 -255.253906 197.328125 -251.265625 C 200.253906 -247.285156 202.769531 -243.1875 204.875 -238.96875 C 201.832031 -237.800781 198.726562 -234.929688 195.5625 -230.359375 C 192.40625 -225.785156 189.535156 -220.925781 186.953125 -215.78125 C 183.910156 -209.6875 180.984375 -203.125 178.171875 -196.09375 C 176.296875 -190.9375 173.832031 -184.140625 170.78125 -175.703125 C 167.738281 -167.273438 164.519531 -158.023438 161.125 -147.953125 C 157.726562 -137.878906 154.210938 -127.453125 150.578125 -116.671875 C 146.953125 -105.890625 143.5 -95.695312 140.21875 -86.09375 C 136.9375 -76.488281 133.945312 -67.878906 131.25 -60.265625 C 128.5625 -52.648438 126.394531 -46.96875 124.75 -43.21875 C 122.40625 -37.601562 119.710938 -31.101562 116.671875 -23.71875 C 113.628906 -16.34375 110.40625 -8.785156 107 -1.046875 C 103.601562 6.679688 100.148438 14.351562 96.640625 21.96875 C 93.128906 29.582031 89.613281 36.429688 86.09375 42.515625 C 81.175781 51.421875 77.019531 57.921875 73.625 62.015625 C 70.226562 66.117188 65.832031 68.171875 60.4375 68.171875 Z M 60.4375 68.171875 "/></g></g><g transform="translate(1859.956097, 2359.800504)"><g><path d="M 77.3125 -206.984375 C 76.613281 -204.410156 75.265625 -201.894531 73.265625 -199.4375 C 71.273438 -196.976562 69.050781 -194.984375 66.59375 -193.453125 C 64.132812 -191.929688 61.613281 -190.9375 59.03125 -190.46875 C 56.457031 -190 54.351562 -190.46875 52.71875 -191.875 C 47.789062 -195.625 45.207031 -199.664062 44.96875 -204 C 44.738281 -208.332031 45.796875 -212.429688 48.140625 -216.296875 C 50.484375 -220.160156 53.410156 -223.441406 56.921875 -226.140625 C 60.441406 -228.835938 63.488281 -230.421875 66.0625 -230.890625 C 68.644531 -231.359375 70.8125 -230.828125 72.5625 -229.296875 C 74.320312 -227.773438 75.671875 -225.785156 76.609375 -223.328125 C 77.546875 -220.867188 78.070312 -218.113281 78.1875 -215.0625 C 78.3125 -212.019531 78.019531 -209.328125 77.3125 -206.984375 Z M 28.8125 -132.140625 C 29.988281 -133.546875 32.210938 -134.71875 35.484375 -135.65625 C 38.765625 -136.59375 42.160156 -137.351562 45.671875 -137.9375 C 49.191406 -138.519531 52.414062 -138.867188 55.34375 -138.984375 C 58.28125 -139.109375 59.976562 -139.050781 60.4375 -138.8125 C 60.675781 -138.582031 60.09375 -136.125 58.6875 -131.4375 C 57.28125 -126.75 55.519531 -121.238281 53.40625 -114.90625 C 51.300781 -108.582031 49.078125 -102.082031 46.734375 -95.40625 C 44.390625 -88.726562 42.632812 -83.285156 41.46875 -79.078125 C 40.300781 -74.859375 38.894531 -70.113281 37.25 -64.84375 C 35.613281 -59.570312 34.148438 -54.414062 32.859375 -49.375 C 31.566406 -44.332031 30.6875 -39.585938 30.21875 -35.140625 C 29.75 -30.691406 30.101562 -27.296875 31.28125 -24.953125 C 32.445312 -22.140625 33.734375 -20.207031 35.140625 -19.15625 C 36.546875 -18.101562 38.070312 -17.578125 39.71875 -17.578125 C 44.394531 -17.578125 50.304688 -20.148438 57.453125 -25.296875 C 64.597656 -30.453125 71.859375 -36.601562 79.234375 -43.75 C 86.617188 -50.894531 93.472656 -58.15625 99.796875 -65.53125 C 106.128906 -72.914062 110.816406 -78.832031 113.859375 -83.28125 C 115.734375 -85.625 117.664062 -87.144531 119.65625 -87.84375 C 121.644531 -88.550781 123.285156 -88.4375 124.578125 -87.5 C 125.867188 -86.5625 126.570312 -85.039062 126.6875 -82.9375 C 126.800781 -80.832031 126.039062 -78.375 124.40625 -75.5625 C 120.65625 -69 115.148438 -61.207031 107.890625 -52.1875 C 100.628906 -43.164062 92.894531 -34.492188 84.6875 -26.171875 C 76.488281 -17.859375 68.460938 -10.773438 60.609375 -4.921875 C 52.765625 0.929688 46.382812 3.976562 41.46875 4.21875 C 37.488281 4.445312 33.5625 3.800781 29.6875 2.28125 C 25.820312 0.757812 22.304688 -1.34375 19.140625 -4.03125 C 15.984375 -6.726562 13.347656 -9.894531 11.234375 -13.53125 C 9.128906 -17.164062 7.960938 -20.972656 7.734375 -24.953125 C 7.023438 -30.804688 7.019531 -38.828125 7.71875 -49.015625 C 8.425781 -59.210938 9.71875 -69.640625 11.59375 -80.296875 C 13.46875 -90.960938 15.867188 -101.097656 18.796875 -110.703125 C 21.722656 -120.304688 25.0625 -127.453125 28.8125 -132.140625 Z M 28.8125 -132.140625 "/></g></g><g transform="translate(1958.706189, 2359.800504)"><g><path d="M 104.375 8.78125 C 98.988281 8.78125 94.359375 7.785156 90.484375 5.796875 C 86.617188 3.804688 83.515625 1.171875 81.171875 -2.109375 C 78.835938 -5.390625 77.316406 -9.195312 76.609375 -13.53125 C 75.910156 -17.863281 76.144531 -22.488281 77.3125 -27.40625 C 78.019531 -30.6875 79.191406 -35.078125 80.828125 -40.578125 C 82.460938 -46.085938 84.160156 -52.0625 85.921875 -58.5 C 87.679688 -64.945312 89.320312 -71.390625 90.84375 -77.828125 C 92.363281 -84.273438 93.359375 -90.132812 93.828125 -95.40625 C 94.296875 -100.675781 94.0625 -105.007812 93.125 -108.40625 C 92.1875 -111.8125 90.195312 -113.515625 87.15625 -113.515625 C 83.40625 -113.515625 79.535156 -112.28125 75.546875 -109.8125 C 71.566406 -107.351562 67.523438 -104.015625 63.421875 -99.796875 C 59.328125 -95.585938 55.226562 -90.726562 51.125 -85.21875 C 47.03125 -79.71875 42.992188 -74.035156 39.015625 -68.171875 C 36.898438 -60.210938 35.140625 -53.242188 33.734375 -47.265625 C 32.328125 -41.296875 31.097656 -35.90625 30.046875 -31.09375 C 28.992188 -26.289062 28 -22.070312 27.0625 -18.4375 C 26.125 -14.8125 25.300781 -11.359375 24.59375 -8.078125 C 23.894531 -5.734375 21.785156 -3.445312 18.265625 -1.21875 C 14.753906 1 11.003906 2.8125 7.015625 4.21875 C 3.035156 5.625 -0.414062 6.328125 -3.34375 6.328125 C -6.269531 6.328125 -7.5 5.269531 -7.03125 3.15625 C -6.789062 1.75 -6.023438 -1.410156 -4.734375 -6.328125 C -3.453125 -11.242188 -1.929688 -17.039062 -0.171875 -23.71875 C 1.578125 -30.394531 3.390625 -37.484375 5.265625 -44.984375 C 7.140625 -52.484375 8.898438 -59.628906 10.546875 -66.421875 C 11.710938 -71.804688 13 -77.78125 14.40625 -84.34375 C 15.582031 -89.96875 17.046875 -96.523438 18.796875 -104.015625 C 20.554688 -111.515625 22.609375 -119.71875 24.953125 -128.625 C 26.585938 -130.03125 28.285156 -131.140625 30.046875 -131.953125 C 31.804688 -132.773438 33.625 -133.421875 35.5 -133.890625 C 37.375 -134.597656 39.363281 -135.066406 41.46875 -135.296875 C 43.34375 -135.296875 45.21875 -135.179688 47.09375 -134.953125 C 48.726562 -134.710938 50.425781 -134.300781 52.1875 -133.71875 C 53.945312 -133.132812 55.53125 -132.253906 56.9375 -131.078125 C 56.226562 -129.441406 55.40625 -127.160156 54.46875 -124.234375 C 53.53125 -121.304688 52.59375 -118.203125 51.65625 -114.921875 C 50.71875 -111.171875 49.546875 -107.300781 48.140625 -103.3125 C 51.191406 -107.53125 54.648438 -111.804688 58.515625 -116.140625 C 62.378906 -120.472656 66.59375 -124.394531 71.15625 -127.90625 C 75.726562 -131.425781 80.59375 -134.300781 85.75 -136.53125 C 90.90625 -138.757812 96.175781 -139.875 101.5625 -139.875 C 106.007812 -139.875 109.988281 -138.582031 113.5 -136 C 117.019531 -133.425781 119.773438 -129.851562 121.765625 -125.28125 C 123.753906 -120.71875 124.925781 -115.269531 125.28125 -108.9375 C 125.632812 -102.613281 124.753906 -95.703125 122.640625 -88.203125 L 118.78125 -72.75 C 117.613281 -67.820312 116.148438 -62.019531 114.390625 -55.34375 C 112.628906 -48.664062 110.460938 -41.347656 107.890625 -33.390625 C 106.484375 -28.234375 105.953125 -23.78125 106.296875 -20.03125 C 106.648438 -16.28125 108.9375 -14.40625 113.15625 -14.40625 C 117.375 -14.40625 122.703125 -16.984375 129.140625 -22.140625 C 135.585938 -27.296875 142.09375 -33.503906 148.65625 -40.765625 C 155.21875 -48.023438 161.425781 -55.460938 167.28125 -63.078125 C 173.132812 -70.691406 177.582031 -76.84375 180.625 -81.53125 C 182.738281 -84.570312 184.734375 -86.5625 186.609375 -87.5 C 188.484375 -88.4375 189.945312 -88.550781 191 -87.84375 C 192.050781 -87.144531 192.578125 -85.566406 192.578125 -83.109375 C 192.578125 -80.648438 191.640625 -77.546875 189.765625 -73.796875 C 188.128906 -70.515625 185.613281 -66.179688 182.21875 -60.796875 C 178.820312 -55.410156 174.78125 -49.671875 170.09375 -43.578125 C 165.40625 -37.484375 160.363281 -31.332031 154.96875 -25.125 C 149.582031 -18.914062 143.960938 -13.289062 138.109375 -8.25 C 132.253906 -3.21875 126.457031 0.875 120.71875 4.03125 C 114.976562 7.195312 109.53125 8.78125 104.375 8.78125 Z M 104.375 8.78125 "/></g></g><g transform="translate(2124.929656, 2359.800504)"><g><path d="M 92.421875 -129.328125 C 95.472656 -131.671875 98.460938 -133.484375 101.390625 -134.765625 C 104.316406 -136.054688 106.953125 -136.9375 109.296875 -137.40625 C 111.867188 -138.113281 114.445312 -138.347656 117.03125 -138.109375 C 123.351562 -137.640625 127.273438 -135.644531 128.796875 -132.125 C 130.316406 -128.613281 130.492188 -122.992188 129.328125 -115.265625 C 128.617188 -111.285156 127.207031 -106.25 125.09375 -100.15625 C 122.988281 -94.0625 120.53125 -86.617188 117.71875 -77.828125 C 114.914062 -69.046875 111.929688 -59.03125 108.765625 -47.78125 C 105.597656 -36.539062 102.613281 -23.894531 99.8125 -9.84375 C 97 1.632812 93.953125 14.875 90.671875 29.875 C 87.859375 42.988281 84.519531 58.800781 80.65625 77.3125 C 76.789062 95.820312 72.628906 117.023438 68.171875 140.921875 C 67.003906 146.773438 64.488281 150.171875 60.625 151.109375 C 56.757812 152.046875 52.71875 151.578125 48.5 149.703125 C 46.851562 148.765625 45.328125 147.710938 43.921875 146.546875 C 42.753906 145.367188 41.46875 144.019531 40.0625 142.5 C 38.65625 140.976562 37.484375 138.929688 36.546875 136.359375 C 41.929688 116.671875 46.675781 98.742188 50.78125 82.578125 C 54.882812 66.421875 58.570312 52.363281 61.84375 40.40625 C 65.363281 26.59375 68.644531 14.175781 71.6875 3.15625 C 72.863281 -1.757812 73.976562 -6.617188 75.03125 -11.421875 C 76.082031 -16.222656 77.195312 -20.96875 78.375 -25.65625 C 75.320312 -20.738281 72.035156 -16.050781 68.515625 -11.59375 C 65.003906 -7.144531 61.140625 -3.28125 56.921875 0 C 52.710938 3.28125 48.207031 5.796875 43.40625 7.546875 C 38.601562 9.304688 33.625 9.835938 28.46875 9.140625 C 15.8125 7.492188 6.847656 2.804688 1.578125 -4.921875 C -3.691406 -12.648438 -5.972656 -22.722656 -5.265625 -35.140625 C -5.035156 -40.054688 -4.332031 -45.441406 -3.15625 -51.296875 C -1.988281 -57.160156 -0.703125 -62.785156 0.703125 -68.171875 C 2.109375 -73.566406 3.453125 -78.429688 4.734375 -82.765625 C 6.023438 -87.097656 7.023438 -90.203125 7.734375 -92.078125 C 10.546875 -100.972656 12.59375 -108.582031 13.875 -114.90625 C 15.164062 -121.238281 14.171875 -126.515625 10.890625 -130.734375 C 14.171875 -132.835938 17.273438 -134.300781 20.203125 -135.125 C 23.128906 -135.945312 25.765625 -136.59375 28.109375 -137.0625 C 30.691406 -137.289062 33.269531 -137.289062 35.84375 -137.0625 C 42.164062 -136.125 45.851562 -133.78125 46.90625 -130.03125 C 47.96875 -126.28125 47.5625 -120.65625 45.6875 -113.15625 C 44.75 -109.175781 43.222656 -104.082031 41.109375 -97.875 C 39.003906 -91.664062 36.78125 -85.28125 34.4375 -78.71875 C 32.09375 -72.15625 29.984375 -66.117188 28.109375 -60.609375 C 26.234375 -55.109375 25.179688 -51.1875 24.953125 -48.84375 C 22.835938 -38.300781 22.71875 -30.160156 24.59375 -24.421875 C 26.46875 -18.679688 30.570312 -15.8125 36.90625 -15.8125 C 39.945312 -15.8125 43.34375 -17.15625 47.09375 -19.84375 C 50.84375 -22.539062 54.648438 -26.113281 58.515625 -30.5625 C 62.378906 -35.019531 66.1875 -40.117188 69.9375 -45.859375 C 73.6875 -51.597656 77.140625 -57.394531 80.296875 -63.25 C 83.460938 -69.113281 86.273438 -74.851562 88.734375 -80.46875 C 91.191406 -86.09375 93.007812 -91.132812 94.1875 -95.59375 C 95.820312 -104.257812 96.875 -111.050781 97.34375 -115.96875 C 97.8125 -120.882812 96.171875 -125.335938 92.421875 -129.328125 Z M 92.421875 -129.328125 "/></g></g><g transform="translate(2271.121965, 2359.800504)"><g><path d="M -5.265625 -5.625 C 5.035156 -48.96875 13.289062 -83.757812 19.5 -110 C 25.707031 -136.238281 30.453125 -156.269531 33.734375 -170.09375 C 37.484375 -186.488281 40.0625 -197.847656 41.46875 -204.171875 C 42.164062 -208.628906 42.75 -212.96875 43.21875 -217.1875 C 43.6875 -220.925781 43.921875 -224.785156 43.921875 -228.765625 C 43.921875 -232.753906 43.570312 -236.390625 42.875 -239.671875 C 44.75 -240.835938 46.796875 -241.769531 49.015625 -242.46875 C 51.242188 -243.175781 53.414062 -243.765625 55.53125 -244.234375 C 58.101562 -244.941406 60.675781 -245.53125 63.25 -246 C 65.832031 -246.46875 68.175781 -246.703125 70.28125 -246.703125 C 72.15625 -246.703125 73.910156 -246.523438 75.546875 -246.171875 C 77.191406 -245.816406 78.25 -245.054688 78.71875 -243.890625 C 80.125 -242.710938 80.765625 -240.367188 80.640625 -236.859375 C 80.523438 -233.347656 80.238281 -229.71875 79.78125 -225.96875 C 78.84375 -221.519531 77.785156 -216.71875 76.609375 -211.5625 C 73.796875 -201.488281 69.929688 -186.960938 65.015625 -167.984375 C 60.796875 -151.816406 55.113281 -129.789062 47.96875 -101.90625 C 40.820312 -74.03125 31.859375 -38.890625 21.078125 3.515625 C 19.910156 4.679688 18.503906 5.5 16.859375 5.96875 C 15.222656 6.4375 13.703125 6.671875 12.296875 6.671875 C 10.660156 6.671875 8.90625 6.554688 7.03125 6.328125 C 5.382812 5.859375 3.742188 5.15625 2.109375 4.21875 C 0.703125 3.28125 -0.703125 2.050781 -2.109375 0.53125 C -3.515625 -0.988281 -4.566406 -3.039062 -5.265625 -5.625 Z M -5.265625 -5.625 "/></g></g><g transform="translate(2349.840901, 2359.800504)"><g/></g><g transform="translate(2450.699539, 2359.800504)"><g><path d="M 63.25 -75.90625 C 66.0625 -76.375 68.875 -76.898438 71.6875 -77.484375 C 74.5 -78.078125 77.546875 -78.84375 80.828125 -79.78125 C 76.847656 -83.519531 71.578125 -85.859375 65.015625 -86.796875 C 64.304688 -83.046875 63.71875 -79.414062 63.25 -75.90625 Z M 206.984375 -184.5 C 206.046875 -174.425781 203.410156 -163.882812 199.078125 -152.875 C 194.742188 -141.863281 188.710938 -131.203125 180.984375 -120.890625 C 173.253906 -110.578125 163.882812 -100.96875 152.875 -92.0625 C 141.863281 -83.164062 129.328125 -75.90625 115.265625 -70.28125 C 117.378906 -66.300781 119.367188 -62.082031 121.234375 -57.625 C 123.109375 -53.175781 124.75 -48.140625 126.15625 -42.515625 C 128.269531 -35.023438 130.085938 -27.296875 131.609375 -19.328125 C 133.128906 -11.359375 134.414062 -3.628906 135.46875 3.859375 C 136.53125 11.359375 137.46875 18.328125 138.28125 24.765625 C 139.101562 31.210938 139.75 36.546875 140.21875 40.765625 C 141.15625 47.796875 143.4375 52.773438 147.0625 55.703125 C 150.695312 58.628906 154.796875 60.265625 159.359375 60.609375 C 163.929688 60.960938 168.503906 60.4375 173.078125 59.03125 C 177.648438 57.632812 181.222656 56.113281 183.796875 54.46875 C 183.554688 54.707031 182.265625 56.757812 179.921875 60.625 C 177.585938 64.488281 174.425781 68.585938 170.4375 72.921875 C 166.457031 77.253906 161.710938 81 156.203125 84.15625 C 150.703125 87.320312 144.554688 88.320312 137.765625 87.15625 C 133.078125 86.445312 128.914062 84.863281 125.28125 82.40625 C 121.65625 79.945312 118.492188 76.316406 115.796875 71.515625 C 113.097656 66.710938 110.925781 60.5625 109.28125 53.0625 C 107.644531 45.5625 106.59375 36.425781 106.125 25.65625 C 105.65625 11.125 105.128906 -2.753906 104.546875 -15.984375 C 103.960938 -29.222656 101.445312 -41.46875 97 -52.71875 C 96.289062 -54.59375 95.582031 -56.40625 94.875 -58.15625 C 94.175781 -59.914062 93.359375 -61.5 92.421875 -62.90625 C 82.816406 -60.5625 72.039062 -59.039062 60.09375 -58.34375 C 58.457031 -49.4375 56.703125 -40.296875 54.828125 -30.921875 C 52.953125 -21.554688 51.015625 -12.421875 49.015625 -3.515625 C 47.023438 5.390625 44.914062 13.765625 42.6875 21.609375 C 40.46875 29.460938 38.304688 36.195312 36.203125 41.8125 C 33.859375 47.675781 30.867188 52.421875 27.234375 56.046875 C 23.597656 59.679688 17.800781 61.5 9.84375 61.5 C 5.15625 61.5 1.054688 60.441406 -2.453125 58.328125 C -5.972656 56.222656 -9.375 53.296875 -12.65625 49.546875 C -11.71875 48.847656 -10.25 47.734375 -8.25 46.203125 C -6.257812 44.679688 -3.914062 41.632812 -1.21875 37.0625 C 1.46875 32.5 4.390625 26 7.546875 17.5625 C 10.710938 9.132812 13.9375 -2.222656 17.21875 -16.515625 C 18.394531 -22.367188 19.976562 -29.21875 21.96875 -37.0625 C 23.957031 -44.914062 26.125 -53.53125 28.46875 -62.90625 C 19.09375 -68.0625 14.757812 -74.972656 15.46875 -83.640625 C 15.9375 -89.023438 18.394531 -93.59375 22.84375 -97.34375 C 27.289062 -101.09375 32.679688 -103.671875 39.015625 -105.078125 C 42.054688 -117.253906 45.15625 -129.550781 48.3125 -141.96875 C 51.476562 -154.382812 54.46875 -166.039062 57.28125 -176.9375 C 60.09375 -187.832031 62.671875 -197.671875 65.015625 -206.453125 C 67.359375 -215.242188 69.234375 -222.21875 70.640625 -227.375 C 66.421875 -224.5625 62.203125 -221.398438 57.984375 -217.890625 C 54.234375 -214.835938 50.191406 -211.378906 45.859375 -207.515625 C 41.523438 -203.648438 37.484375 -199.609375 33.734375 -195.390625 C 31.859375 -196.796875 30.332031 -198.316406 29.15625 -199.953125 C 27.988281 -201.597656 27.054688 -203.003906 26.359375 -204.171875 C 25.421875 -205.578125 24.71875 -207.101562 24.25 -208.75 C 22.601562 -212.03125 21.78125 -215.601562 21.78125 -219.46875 C 21.78125 -223.332031 24.59375 -227.253906 30.21875 -231.234375 C 33.269531 -233.347656 37.898438 -236.394531 44.109375 -240.375 C 50.316406 -244.351562 57.988281 -248.21875 67.125 -251.96875 C 76.257812 -255.71875 86.859375 -259 98.921875 -261.8125 C 110.992188 -264.625 124.410156 -266.03125 139.171875 -266.03125 C 153.921875 -266.03125 165.863281 -263.097656 175 -257.234375 C 184.144531 -251.378906 191.175781 -244.234375 196.09375 -235.796875 C 201.007812 -227.367188 204.226562 -218.46875 205.75 -209.09375 C 207.28125 -199.726562 207.691406 -191.53125 206.984375 -184.5 Z M 100.859375 -87.859375 C 109.054688 -91.835938 117.195312 -96.753906 125.28125 -102.609375 C 133.363281 -108.472656 140.6875 -115.503906 147.25 -123.703125 C 153.8125 -131.898438 159.316406 -141.210938 163.765625 -151.640625 C 168.210938 -162.066406 171.023438 -173.835938 172.203125 -186.953125 C 173.140625 -198.671875 172.375 -208.453125 169.90625 -216.296875 C 167.445312 -224.148438 163.816406 -230.414062 159.015625 -235.09375 C 154.210938 -239.78125 148.765625 -243.117188 142.671875 -245.109375 C 136.585938 -247.109375 130.5 -248.109375 124.40625 -248.109375 C 118.78125 -248.109375 113.097656 -247.285156 107.359375 -245.640625 C 101.617188 -244.003906 96.054688 -241.898438 90.671875 -239.328125 C 91.367188 -239.085938 92.1875 -238.5 93.125 -237.5625 C 93.59375 -236.863281 94.117188 -235.984375 94.703125 -234.921875 C 95.296875 -233.867188 95.707031 -232.757812 95.9375 -231.59375 C 90.550781 -208.863281 86.21875 -189.882812 82.9375 -174.65625 C 79.65625 -159.425781 76.960938 -147.007812 74.859375 -137.40625 C 72.273438 -126.15625 70.398438 -117.132812 69.234375 -110.34375 C 68.992188 -109.40625 68.816406 -108.46875 68.703125 -107.53125 C 68.585938 -106.59375 68.410156 -105.539062 68.171875 -104.375 C 73.328125 -103.195312 78.71875 -101.378906 84.34375 -98.921875 C 89.96875 -96.460938 95.472656 -92.773438 100.859375 -87.859375 Z M 100.859375 -87.859375 "/></g></g><g transform="translate(2652.416814, 2359.800504)"><g><path d="M 159.203125 -73.09375 C 152.171875 -62.789062 144.203125 -52.773438 135.296875 -43.046875 C 126.390625 -33.328125 116.957031 -24.660156 107 -17.046875 C 97.050781 -9.429688 86.863281 -3.28125 76.4375 1.40625 C 66.007812 6.09375 55.875 8.4375 46.03125 8.4375 C 40.882812 8.4375 35.320312 7.203125 29.34375 4.734375 C 23.363281 2.273438 17.914062 -1.523438 13 -6.671875 C 8.082031 -11.828125 4.160156 -18.503906 1.234375 -26.703125 C -1.691406 -34.910156 -2.570312 -44.867188 -1.40625 -56.578125 C -0.46875 -66.179688 2.515625 -76.3125 7.546875 -86.96875 C 12.585938 -97.632812 18.796875 -107.414062 26.171875 -116.3125 C 33.554688 -125.21875 41.875 -132.597656 51.125 -138.453125 C 60.382812 -144.316406 69.703125 -147.25 79.078125 -147.25 C 87.972656 -147.25 94.410156 -145.019531 98.390625 -140.5625 C 102.378906 -136.113281 104.140625 -130.609375 103.671875 -124.046875 C 102.960938 -116.785156 100.910156 -110.109375 97.515625 -104.015625 C 94.117188 -97.929688 90.078125 -92.425781 85.390625 -87.5 C 80.710938 -82.582031 75.734375 -78.128906 70.453125 -74.140625 C 65.179688 -70.160156 60.207031 -66.53125 55.53125 -63.25 C 50.375 -59.738281 45.453125 -56.398438 40.765625 -53.234375 C 36.078125 -50.078125 31.976562 -47.207031 28.46875 -44.625 C 28.695312 -38.769531 29.75 -33.847656 31.625 -29.859375 C 33.5 -25.878906 35.84375 -22.660156 38.65625 -20.203125 C 41.46875 -17.742188 44.6875 -15.988281 48.3125 -14.9375 C 51.945312 -13.882812 55.640625 -13.359375 59.390625 -13.359375 C 67.359375 -13.359375 75.675781 -15.875 84.34375 -20.90625 C 93.007812 -25.945312 101.5 -32.039062 109.8125 -39.1875 C 118.132812 -46.332031 125.867188 -53.769531 133.015625 -61.5 C 140.160156 -69.226562 146.078125 -75.90625 150.765625 -81.53125 C 152.398438 -83.40625 154.097656 -84.515625 155.859375 -84.859375 C 157.617188 -85.210938 159.023438 -84.976562 160.078125 -84.15625 C 161.128906 -83.34375 161.65625 -81.941406 161.65625 -79.953125 C 161.65625 -77.960938 160.835938 -75.675781 159.203125 -73.09375 Z M 69.234375 -127.21875 C 66.421875 -127.21875 63.082031 -125.8125 59.21875 -123 C 55.351562 -120.1875 51.546875 -116.144531 47.796875 -110.875 C 44.046875 -105.601562 40.53125 -99.160156 37.25 -91.546875 C 33.96875 -83.929688 31.507812 -75.203125 29.875 -65.359375 C 32.6875 -67.472656 35.726562 -69.640625 39 -71.859375 C 42.28125 -74.085938 45.5625 -76.492188 48.84375 -79.078125 C 58.914062 -86.804688 65.941406 -93.597656 69.921875 -99.453125 C 73.910156 -105.304688 76.140625 -110.34375 76.609375 -114.5625 C 77.078125 -119.007812 76.609375 -122.226562 75.203125 -124.21875 C 73.796875 -126.21875 71.804688 -127.21875 69.234375 -127.21875 Z M 69.234375 -127.21875 "/></g></g><g transform="translate(2786.309289, 2359.800504)"><g><path d="M 59.75 -11.953125 C 67.007812 -11.953125 75.03125 -14.820312 83.8125 -20.5625 C 92.601562 -26.300781 101.15625 -33.035156 109.46875 -40.765625 C 117.78125 -48.492188 125.390625 -56.398438 132.296875 -64.484375 C 139.210938 -72.566406 144.429688 -79.066406 147.953125 -83.984375 C 150.054688 -87.035156 152.046875 -88.851562 153.921875 -89.4375 C 155.796875 -90.019531 157.203125 -89.722656 158.140625 -88.546875 C 159.078125 -87.378906 159.425781 -85.566406 159.1875 -83.109375 C 158.957031 -80.648438 157.90625 -77.898438 156.03125 -74.859375 C 154.394531 -72.046875 151.640625 -68.003906 147.765625 -62.734375 C 143.898438 -57.460938 139.332031 -51.722656 134.0625 -45.515625 C 128.789062 -39.304688 122.816406 -32.976562 116.140625 -26.53125 C 109.460938 -20.09375 102.492188 -14.234375 95.234375 -8.953125 C 87.972656 -3.679688 80.472656 0.648438 72.734375 4.046875 C 65.003906 7.441406 57.394531 9.140625 49.90625 9.140625 C 39.59375 9.140625 30.976562 7.207031 24.0625 3.34375 C 17.15625 -0.519531 11.648438 -5.5 7.546875 -11.59375 C 3.453125 -17.6875 0.585938 -24.421875 -1.046875 -31.796875 C -2.691406 -39.179688 -3.515625 -46.503906 -3.515625 -53.765625 C -3.515625 -61.023438 -1.875 -70.046875 1.40625 -80.828125 C 4.6875 -91.609375 9.546875 -101.972656 15.984375 -111.921875 C 22.429688 -121.878906 30.570312 -130.429688 40.40625 -137.578125 C 50.25 -144.722656 61.847656 -148.296875 75.203125 -148.296875 C 82.703125 -148.296875 89.085938 -145.71875 94.359375 -140.5625 C 99.628906 -135.414062 102.144531 -128.390625 101.90625 -119.484375 C 101.90625 -115.265625 101.203125 -111.101562 99.796875 -107 C 98.398438 -102.90625 96.53125 -99.273438 94.1875 -96.109375 C 91.84375 -92.953125 89.085938 -90.4375 85.921875 -88.5625 C 82.753906 -86.6875 79.300781 -85.75 75.5625 -85.75 C 72.507812 -85.75 70.222656 -86.859375 68.703125 -89.078125 C 67.179688 -91.304688 66.242188 -93.882812 65.890625 -96.8125 C 65.535156 -99.738281 65.535156 -102.609375 65.890625 -105.421875 C 66.242188 -108.234375 66.65625 -110.109375 67.125 -111.046875 C 68.289062 -112.691406 69.578125 -113.863281 70.984375 -114.5625 C 72.390625 -115.269531 74.03125 -116.09375 75.90625 -117.03125 C 77.3125 -117.726562 78.421875 -118.78125 79.234375 -120.1875 C 80.054688 -121.59375 80.46875 -123.113281 80.46875 -124.75 C 80.46875 -126.394531 80 -127.800781 79.0625 -128.96875 C 78.132812 -130.144531 76.613281 -130.734375 74.5 -130.734375 C 72.394531 -130.734375 68.585938 -129.03125 63.078125 -125.625 C 57.578125 -122.226562 51.957031 -117.191406 46.21875 -110.515625 C 40.476562 -103.835938 35.378906 -95.460938 30.921875 -85.390625 C 26.472656 -75.316406 24.128906 -63.601562 23.890625 -50.25 C 23.660156 -42.519531 24.71875 -36.191406 27.0625 -31.265625 C 29.40625 -26.347656 32.332031 -22.484375 35.84375 -19.671875 C 39.351562 -16.867188 43.21875 -14.878906 47.4375 -13.703125 C 51.65625 -12.535156 55.757812 -11.953125 59.75 -11.953125 Z M 59.75 -11.953125 "/></g></g><g transform="translate(2917.03895, 2359.800504)"><g><path d="M 104.015625 -55.875 C 101.671875 -46.96875 98.507812 -38.648438 94.53125 -30.921875 C 90.550781 -23.191406 85.804688 -16.515625 80.296875 -10.890625 C 74.796875 -5.265625 68.585938 -0.875 61.671875 2.28125 C 54.765625 5.445312 47.210938 7.03125 39.015625 7.03125 C 29.398438 7.03125 21.835938 4.976562 16.328125 0.875 C 10.828125 -3.21875 6.726562 -8.3125 4.03125 -14.40625 C 1.34375 -20.5 -0.289062 -27.175781 -0.875 -34.4375 C -1.457031 -41.695312 -1.75 -48.492188 -1.75 -54.828125 C -1.75 -59.273438 -1.222656 -64.191406 -0.171875 -69.578125 C 0.878906 -74.972656 2.34375 -80.476562 4.21875 -86.09375 C 6.09375 -91.71875 8.492188 -97.34375 11.421875 -102.96875 C 14.347656 -108.59375 17.800781 -113.75 21.78125 -118.4375 C 23.1875 -122.414062 25.351562 -125.925781 28.28125 -128.96875 C 31.21875 -132.019531 34.617188 -134.539062 38.484375 -136.53125 C 42.347656 -138.519531 46.503906 -140.039062 50.953125 -141.09375 C 55.410156 -142.144531 59.742188 -142.671875 63.953125 -142.671875 C 64.660156 -142.671875 65.304688 -142.550781 65.890625 -142.3125 C 66.472656 -142.082031 67.117188 -141.851562 67.828125 -141.625 C 70.867188 -141.382812 74.671875 -140.210938 79.234375 -138.109375 C 83.804688 -136.003906 88.257812 -132.84375 92.59375 -128.625 C 96.9375 -124.40625 100.628906 -119.070312 103.671875 -112.625 C 106.710938 -106.1875 108.234375 -98.398438 108.234375 -89.265625 C 108.234375 -87.390625 108.113281 -85.101562 107.875 -82.40625 C 107.644531 -79.71875 107.414062 -77.4375 107.1875 -75.5625 C 112.570312 -77.664062 118.191406 -80.238281 124.046875 -83.28125 C 129.910156 -86.332031 135.59375 -89.554688 141.09375 -92.953125 C 146.601562 -96.347656 151.695312 -99.800781 156.375 -103.3125 C 161.0625 -106.832031 164.8125 -110 167.625 -112.8125 C 169.96875 -114.914062 171.957031 -116.082031 173.59375 -116.3125 C 175.238281 -116.550781 176.410156 -116.082031 177.109375 -114.90625 C 177.816406 -113.738281 177.9375 -112.097656 177.46875 -109.984375 C 177 -107.878906 175.710938 -105.539062 173.609375 -102.96875 C 172.429688 -101.5625 169.441406 -98.75 164.640625 -94.53125 C 159.835938 -90.3125 154.15625 -85.742188 147.59375 -80.828125 C 141.039062 -75.910156 133.894531 -71.109375 126.15625 -66.421875 C 118.425781 -61.734375 111.046875 -58.21875 104.015625 -55.875 Z M 44.625 -109.296875 C 43.925781 -107.179688 43.578125 -104.953125 43.578125 -102.609375 C 43.578125 -98.867188 43.8125 -94.945312 44.28125 -90.84375 C 44.75 -86.738281 45.921875 -83.046875 47.796875 -79.765625 C 49.671875 -76.492188 52.65625 -73.742188 56.75 -71.515625 C 60.851562 -69.285156 66.535156 -68.171875 73.796875 -68.171875 C 74.972656 -68.171875 76.144531 -68.226562 77.3125 -68.34375 C 78.488281 -68.46875 79.660156 -68.644531 80.828125 -68.875 C 81.523438 -71.925781 82.164062 -74.679688 82.75 -77.140625 C 83.34375 -79.597656 83.640625 -81.765625 83.640625 -83.640625 C 84.109375 -88.085938 84.109375 -92.65625 83.640625 -97.34375 C 83.171875 -102.03125 82.289062 -106.304688 81 -110.171875 C 79.71875 -114.035156 78.078125 -117.195312 76.078125 -119.65625 C 74.085938 -122.113281 71.6875 -123.34375 68.875 -123.34375 C 64.425781 -123.34375 60.148438 -122.113281 56.046875 -119.65625 C 51.953125 -117.195312 48.144531 -113.742188 44.625 -109.296875 Z M 22.140625 -47.4375 C 22.140625 -43.21875 22.375 -39.054688 22.84375 -34.953125 C 23.3125 -30.859375 24.25 -27.226562 25.65625 -24.0625 C 27.0625 -20.90625 28.9375 -18.332031 31.28125 -16.34375 C 33.625 -14.351562 36.664062 -13.359375 40.40625 -13.359375 C 44.625 -13.359375 48.488281 -14.351562 52 -16.34375 C 55.519531 -18.332031 58.6875 -20.90625 61.5 -24.0625 C 64.3125 -27.226562 66.828125 -30.859375 69.046875 -34.953125 C 71.273438 -39.054688 73.210938 -43.335938 74.859375 -47.796875 C 73.210938 -47.554688 71.628906 -47.378906 70.109375 -47.265625 C 68.585938 -47.148438 66.890625 -47.09375 65.015625 -47.09375 C 56.109375 -47.09375 48.429688 -49.726562 41.984375 -55 C 35.546875 -60.269531 30.570312 -67.003906 27.0625 -75.203125 C 25.65625 -70.285156 24.484375 -65.484375 23.546875 -60.796875 C 22.609375 -56.109375 22.140625 -51.65625 22.140625 -47.4375 Z M 22.140625 -47.4375 "/></g></g><g transform="translate(3058.662751, 2359.800504)"><g><path d="M -13.359375 -1.75 C -14.992188 0.820312 -16.804688 2.515625 -18.796875 3.328125 C -20.785156 4.148438 -22.539062 4.269531 -24.0625 3.6875 C -25.59375 3.101562 -26.59375 1.875 -27.0625 0 C -27.53125 -1.875 -27.0625 -4.21875 -25.65625 -7.03125 C -24.945312 -8.4375 -23.363281 -11.597656 -20.90625 -16.515625 C -18.445312 -21.429688 -15.519531 -27.34375 -12.125 -34.25 C -8.726562 -41.164062 -5.035156 -48.664062 -1.046875 -56.75 C 2.929688 -64.832031 6.734375 -72.503906 10.359375 -79.765625 C 13.992188 -87.035156 17.332031 -93.539062 20.375 -99.28125 C 23.425781 -105.019531 25.65625 -109.175781 27.0625 -111.75 C 24.476562 -114.09375 22.71875 -115.789062 21.78125 -116.84375 C 20.84375 -117.90625 20.144531 -120.191406 19.6875 -123.703125 C 19.21875 -126.742188 19.914062 -130.722656 21.78125 -135.640625 C 23.65625 -140.566406 26.113281 -145.3125 29.15625 -149.875 C 32.207031 -154.445312 35.609375 -158.375 39.359375 -161.65625 C 43.109375 -164.9375 46.738281 -166.578125 50.25 -166.578125 C 56.8125 -166.578125 61.4375 -164.46875 64.125 -160.25 C 66.820312 -156.03125 68.40625 -151.695312 68.875 -147.25 C 69.34375 -144.195312 69.109375 -140.328125 68.171875 -135.640625 C 67.234375 -130.960938 65.476562 -126.75 62.90625 -123 C 63.601562 -122.53125 64.535156 -122 65.703125 -121.40625 C 66.878906 -120.820312 68.757812 -120.53125 71.34375 -120.53125 C 75.09375 -120.53125 77.726562 -120.765625 79.25 -121.234375 C 80.769531 -121.703125 83.171875 -121.9375 86.453125 -121.9375 C 90.429688 -121.9375 93.707031 -120.941406 96.28125 -118.953125 C 98.863281 -116.960938 100.972656 -114.503906 102.609375 -111.578125 C 104.253906 -108.648438 105.484375 -105.488281 106.296875 -102.09375 C 107.117188 -98.695312 107.648438 -95.59375 107.890625 -92.78125 C 108.585938 -86.914062 107.0625 -80.820312 103.3125 -74.5 C 99.570312 -68.175781 95.003906 -61.265625 89.609375 -53.765625 C 86.328125 -49.078125 83.046875 -43.804688 79.765625 -37.953125 C 76.492188 -32.097656 75.09375 -26.828125 75.5625 -22.140625 C 76.03125 -19.097656 76.847656 -16.640625 78.015625 -14.765625 C 79.191406 -12.890625 82.472656 -11.953125 87.859375 -11.953125 C 91.835938 -11.953125 96.226562 -13.414062 101.03125 -16.34375 C 105.832031 -19.269531 110.75 -23.015625 115.78125 -27.578125 C 120.820312 -32.148438 125.800781 -37.1875 130.71875 -42.6875 C 135.644531 -48.195312 140.21875 -53.585938 144.4375 -58.859375 C 148.65625 -64.128906 152.226562 -68.875 155.15625 -73.09375 C 158.082031 -77.3125 160.25 -80.359375 161.65625 -82.234375 C 162.820312 -84.109375 164.34375 -85.394531 166.21875 -86.09375 C 168.09375 -86.800781 169.734375 -86.800781 171.140625 -86.09375 C 172.546875 -85.394531 173.425781 -83.988281 173.78125 -81.875 C 174.132812 -79.769531 173.253906 -76.960938 171.140625 -73.453125 C 169.734375 -71.109375 167.332031 -67.359375 163.9375 -62.203125 C 160.539062 -57.046875 156.441406 -51.304688 151.640625 -44.984375 C 146.835938 -38.660156 141.503906 -32.160156 135.640625 -25.484375 C 129.785156 -18.804688 123.632812 -12.710938 117.1875 -7.203125 C 110.75 -1.703125 104.304688 2.800781 97.859375 6.3125 C 91.421875 9.832031 85.273438 11.59375 79.421875 11.59375 C 73.328125 11.59375 68.289062 10.421875 64.3125 8.078125 C 60.332031 5.734375 57.109375 2.863281 54.640625 -0.53125 C 52.179688 -3.925781 50.425781 -7.671875 49.375 -11.765625 C 48.320312 -15.867188 47.910156 -19.675781 48.140625 -23.1875 C 48.378906 -26 49.140625 -28.988281 50.421875 -32.15625 C 51.710938 -35.320312 53.238281 -38.601562 55 -42 C 56.757812 -45.394531 58.632812 -48.789062 60.625 -52.1875 C 62.613281 -55.582031 64.425781 -58.921875 66.0625 -62.203125 C 70.050781 -68.992188 73.273438 -74.789062 75.734375 -79.59375 C 78.191406 -84.394531 79.421875 -88.4375 79.421875 -91.71875 C 79.421875 -93.832031 78.953125 -95.707031 78.015625 -97.34375 C 77.078125 -98.988281 75.554688 -99.8125 73.453125 -99.8125 C 72.046875 -99.8125 71.046875 -99.75 70.453125 -99.625 C 69.867188 -99.507812 69.285156 -99.453125 68.703125 -99.453125 C 68.117188 -99.453125 67.296875 -99.394531 66.234375 -99.28125 C 65.179688 -99.164062 63.601562 -99.109375 61.5 -99.109375 C 58.457031 -99.109375 55.878906 -99.570312 53.765625 -100.5 C 51.660156 -101.4375 49.671875 -102.140625 47.796875 -102.609375 C 46.859375 -100.972656 44.75 -97.457031 41.46875 -92.0625 C 38.1875 -86.675781 34.378906 -80.351562 30.046875 -73.09375 C 25.710938 -65.832031 21.144531 -58.21875 16.34375 -50.25 C 11.539062 -42.289062 7.03125 -34.851562 2.8125 -27.9375 C -1.40625 -21.03125 -4.976562 -15.171875 -7.90625 -10.359375 C -10.832031 -5.554688 -12.648438 -2.6875 -13.359375 -1.75 Z M -13.359375 -1.75 "/></g></g><g transform="translate(3204.85506, 2359.800504)"><g><path d="M 111.75 -67.125 C 110.582031 -59.863281 109.46875 -52.953125 108.40625 -46.390625 C 107.351562 -39.828125 106.710938 -34.554688 106.484375 -30.578125 C 106.242188 -24.710938 107.296875 -20.492188 109.640625 -17.921875 C 111.984375 -15.347656 114.5625 -14.0625 117.375 -14.0625 C 120.65625 -14.0625 124.695312 -15.695312 129.5 -18.96875 C 134.300781 -22.25 139.394531 -26.347656 144.78125 -31.265625 C 150.175781 -36.191406 155.566406 -41.582031 160.953125 -47.4375 C 166.335938 -53.300781 171.3125 -58.867188 175.875 -64.140625 C 180.445312 -69.410156 184.316406 -74.035156 187.484375 -78.015625 C 190.648438 -81.992188 192.816406 -84.570312 193.984375 -85.75 C 195.390625 -87.15625 196.851562 -87.972656 198.375 -88.203125 C 199.894531 -88.441406 201.125 -88.207031 202.0625 -87.5 C 203 -86.800781 203.46875 -85.515625 203.46875 -83.640625 C 203.46875 -81.765625 202.53125 -79.421875 200.65625 -76.609375 C 197.851562 -72.160156 194.222656 -66.945312 189.765625 -60.96875 C 185.316406 -55 180.394531 -48.847656 175 -42.515625 C 169.613281 -36.191406 163.929688 -29.984375 157.953125 -23.890625 C 151.984375 -17.804688 146.007812 -12.421875 140.03125 -7.734375 C 134.0625 -3.046875 128.320312 0.757812 122.8125 3.6875 C 117.3125 6.613281 112.335938 8.078125 107.890625 8.078125 C 104.609375 8.078125 101.503906 7.140625 98.578125 5.265625 C 95.648438 3.390625 93.015625 0.929688 90.671875 -2.109375 C 88.328125 -5.148438 86.507812 -8.546875 85.21875 -12.296875 C 83.925781 -16.046875 83.398438 -19.796875 83.640625 -23.546875 C 83.867188 -25.179688 84.21875 -27.992188 84.6875 -31.984375 C 74.851562 -20.972656 64.957031 -12.242188 55 -5.796875 C 45.039062 0.640625 35.492188 3.859375 26.359375 3.859375 C 23.078125 3.859375 19.5625 3.039062 15.8125 1.40625 C 12.0625 -0.226562 8.722656 -2.921875 5.796875 -6.671875 C 2.867188 -10.421875 0.46875 -15.34375 -1.40625 -21.4375 C -3.28125 -27.53125 -3.984375 -34.910156 -3.515625 -43.578125 C -2.804688 -57.160156 -0.113281 -70.039062 4.5625 -82.21875 C 9.25 -94.40625 15.164062 -105.007812 22.3125 -114.03125 C 29.457031 -123.050781 37.539062 -130.195312 46.5625 -135.46875 C 55.582031 -140.738281 64.660156 -143.375 73.796875 -143.375 C 77.785156 -143.375 81.414062 -142.378906 84.6875 -140.390625 C 87.96875 -138.398438 90.78125 -135.820312 93.125 -132.65625 C 95.46875 -129.5 97.398438 -126.046875 98.921875 -122.296875 C 100.441406 -118.546875 101.554688 -115.03125 102.265625 -111.75 C 103.898438 -118.539062 105.421875 -125.21875 106.828125 -131.78125 C 108.234375 -138.34375 109.640625 -144.550781 111.046875 -150.40625 C 113.390625 -159.070312 115.851562 -168.445312 118.4375 -178.53125 C 120.769531 -187.195312 123.457031 -197.148438 126.5 -208.390625 C 129.550781 -219.640625 132.953125 -231.472656 136.703125 -243.890625 C 139.046875 -245.765625 141.269531 -247.171875 143.375 -248.109375 C 145.488281 -249.046875 147.484375 -249.75 149.359375 -250.21875 C 151.460938 -250.914062 153.453125 -251.265625 155.328125 -251.265625 C 157.671875 -251.265625 159.78125 -250.972656 161.65625 -250.390625 C 163.53125 -249.804688 165.109375 -248.28125 166.390625 -245.8125 C 167.679688 -243.351562 168.5625 -239.664062 169.03125 -234.75 C 169.5 -229.832031 169.5 -223.15625 169.03125 -214.71875 C 168.5625 -204.414062 166.742188 -193.171875 163.578125 -180.984375 C 160.421875 -168.796875 156.265625 -156.203125 151.109375 -143.203125 C 145.953125 -130.203125 140.035156 -117.195312 133.359375 -104.1875 C 126.679688 -91.1875 119.476562 -78.832031 111.75 -67.125 Z M 91.015625 -62.546875 C 91.953125 -67.003906 92.832031 -71.457031 93.65625 -75.90625 C 94.476562 -80.351562 95.472656 -84.921875 96.640625 -89.609375 C 96.171875 -89.378906 95.757812 -89.144531 95.40625 -88.90625 C 95.0625 -88.675781 94.65625 -88.441406 94.1875 -88.203125 C 91.601562 -87.035156 89.84375 -87.09375 88.90625 -88.375 C 87.96875 -89.664062 87.5 -91.71875 87.5 -94.53125 C 87.5 -95.9375 87.378906 -98.453125 87.140625 -102.078125 C 86.910156 -105.710938 86.269531 -109.460938 85.21875 -113.328125 C 84.164062 -117.203125 82.582031 -120.601562 80.46875 -123.53125 C 78.363281 -126.457031 75.4375 -127.921875 71.6875 -127.921875 C 66.300781 -127.921875 60.796875 -125.164062 55.171875 -119.65625 C 49.546875 -114.15625 44.273438 -107.476562 39.359375 -99.625 C 34.441406 -91.78125 30.34375 -83.40625 27.0625 -74.5 C 23.78125 -65.59375 21.90625 -57.628906 21.4375 -50.609375 C 20.96875 -39.359375 22.375 -31.273438 25.65625 -26.359375 C 28.9375 -21.441406 33.390625 -18.984375 39.015625 -18.984375 C 43.222656 -18.984375 47.84375 -20.617188 52.875 -23.890625 C 57.914062 -27.171875 62.835938 -31.15625 67.640625 -35.84375 C 72.453125 -40.53125 76.90625 -45.332031 81 -50.25 C 85.101562 -55.175781 88.441406 -59.273438 91.015625 -62.546875 Z M 91.015625 -62.546875 "/></g></g><g transform="translate(3378.809853, 2359.800504)"><g><path d="M 49.546875 -11.953125 C 50.953125 -11.015625 52.769531 -10.546875 55 -10.546875 C 57.226562 -10.546875 59.453125 -11.015625 61.671875 -11.953125 C 63.898438 -12.890625 66.007812 -14.175781 68 -15.8125 C 69.988281 -17.457031 71.453125 -19.566406 72.390625 -22.140625 C 73.328125 -24.710938 73.328125 -28.398438 72.390625 -33.203125 C 71.453125 -38.003906 69.988281 -43.160156 68 -48.671875 C 66.007812 -54.179688 63.84375 -59.742188 61.5 -65.359375 C 59.15625 -70.984375 57.164062 -76.140625 55.53125 -80.828125 C 54.125 -84.335938 52.953125 -87.617188 52.015625 -90.671875 C 51.078125 -93.242188 50.195312 -95.757812 49.375 -98.21875 C 48.550781 -100.675781 47.90625 -102.375 47.4375 -103.3125 C 46.269531 -101.4375 44.222656 -98.390625 41.296875 -94.171875 C 38.367188 -89.960938 35.203125 -85.570312 31.796875 -81 C 28.398438 -76.4375 25.179688 -72.21875 22.140625 -68.34375 C 19.097656 -64.476562 16.988281 -61.84375 15.8125 -60.4375 C 13.9375 -58.332031 12.117188 -57.101562 10.359375 -56.75 C 8.609375 -56.40625 7.144531 -56.757812 5.96875 -57.8125 C 4.800781 -58.863281 4.15625 -60.382812 4.03125 -62.375 C 3.914062 -64.363281 4.796875 -66.765625 6.671875 -69.578125 C 8.078125 -71.453125 10.1875 -74.4375 13 -78.53125 C 15.8125 -82.632812 18.625 -86.851562 21.4375 -91.1875 C 24.25 -95.53125 26.828125 -99.398438 29.171875 -102.796875 C 31.515625 -106.191406 32.800781 -108.238281 33.03125 -108.9375 C 33.5 -110.8125 32.851562 -113.269531 31.09375 -116.3125 C 29.34375 -119.363281 29.050781 -122.878906 30.21875 -126.859375 C 31.15625 -130.140625 33.265625 -133.945312 36.546875 -138.28125 C 39.828125 -142.613281 43.691406 -146.535156 48.140625 -150.046875 C 52.597656 -153.566406 57.164062 -156.203125 61.84375 -157.953125 C 66.53125 -159.710938 70.75 -159.660156 74.5 -157.796875 C 77.550781 -155.921875 80.007812 -153.867188 81.875 -151.640625 C 83.75 -149.410156 84.453125 -147.125 83.984375 -144.78125 C 83.515625 -143.613281 82.8125 -142.09375 81.875 -140.21875 C 80.9375 -138.34375 79.53125 -136.054688 77.65625 -133.359375 C 75.789062 -130.671875 73.097656 -127.21875 69.578125 -123 C 70.285156 -117.613281 71.28125 -112.691406 72.5625 -108.234375 C 73.851562 -103.785156 75.085938 -99.921875 76.265625 -96.640625 C 77.671875 -92.660156 79.191406 -89.03125 80.828125 -85.75 C 82.929688 -81.53125 85.15625 -77.191406 87.5 -72.734375 C 89.84375 -68.285156 91.953125 -63.894531 93.828125 -59.5625 C 95.703125 -55.226562 97.222656 -51.1875 98.390625 -47.4375 C 99.566406 -43.6875 99.921875 -40.523438 99.453125 -37.953125 C 98.753906 -33.972656 96.703125 -29.171875 93.296875 -23.546875 C 89.898438 -17.921875 85.679688 -12.472656 80.640625 -7.203125 C 75.609375 -1.929688 69.867188 2.578125 63.421875 6.328125 C 56.984375 10.078125 50.25 11.953125 43.21875 11.953125 C 38.300781 11.953125 33.554688 10.425781 28.984375 7.375 C 24.421875 4.332031 20.554688 0.765625 17.390625 -3.328125 C 14.234375 -7.429688 11.890625 -11.472656 10.359375 -15.453125 C 8.835938 -19.441406 8.664062 -22.488281 9.84375 -24.59375 C 11.25 -27.40625 12.535156 -29.628906 13.703125 -31.265625 C 14.878906 -32.910156 16.640625 -34.789062 18.984375 -36.90625 C 19.910156 -37.601562 21.078125 -38.421875 22.484375 -39.359375 C 23.660156 -40.054688 25.300781 -40.753906 27.40625 -41.453125 C 29.519531 -42.160156 31.984375 -42.984375 34.796875 -43.921875 C 37.140625 -36.660156 39.242188 -30.976562 41.109375 -26.875 C 42.984375 -22.78125 44.507812 -19.5625 45.6875 -17.21875 C 47.09375 -14.644531 48.378906 -12.890625 49.546875 -11.953125 Z M 49.546875 -11.953125 "/></g></g></g></svg>