<svg id="Layer_1" data-name="Layer 1" xmlns="http://www.w3.org/2000/svg" viewBox="0 0 176 176"><defs><style>.cls-1{fill:none;stroke:#000;stroke-miterlimit:10;stroke-width:7px;}</style></defs><path d="M100,89a11,11,0,1,1-11,11,11,11,0,0,1,11-11m0-11a22,22,0,1,0,22,22,22,22,0,0,0-22-22Z" transform="translate(-12 -12)"/><path d="M100,23a77.36,77.36,0,0,1,30.64,6.34V68h39.41A77,77,0,1,1,100,23m0-11a88,88,0,1,0,76.79,45H141.64V22.46A87.64,87.64,0,0,0,100,12Z" transform="translate(-12 -12)"/><path class="cls-1" d="M44.45,113.22A43.55,43.55,0,0,0,88,156.78" transform="translate(-12 -12)"/></svg>